<?xml version="1.0" encoding="utf-8"?>
<!-- Generator: Adobe Illustrator 16.0.4, SVG Export Plug-In . SVG Version: 6.00 Build 0)  -->
<!DOCTYPE svg PUBLIC "-//W3C//DTD SVG 1.1//EN" "http://www.w3.org/Graphics/SVG/1.1/DTD/svg11.dtd">
<svg version="1.1" id="Layer_1" xmlns="http://www.w3.org/2000/svg" xmlns:xlink="http://www.w3.org/1999/xlink" x="0px" y="0px"
	 width="36px" height="36px" viewBox="0 0 36 36" enable-background="new 0 0 36 36" xml:space="preserve">
<path fill="#87CEBB" d="M18.049,1.785C9.093,1.785,1.834,9.045,1.834,18s7.259,16.214,16.215,16.214
	c8.955,0,16.214-7.259,16.214-16.214S27.004,1.785,18.049,1.785z M24.644,15.069c0.007,0.137,0.009,0.275,0.009,0.414
	c0,4.221-3.212,9.087-9.086,9.087c-1.803,0-3.482-0.53-4.895-1.436c0.25,0.029,0.503,0.044,0.761,0.044
	c1.497,0,2.874-0.509,3.967-1.366c-1.397-0.025-2.577-0.949-2.984-2.218c0.195,0.037,0.396,0.058,0.601,0.058
	c0.291,0,0.574-0.039,0.841-0.112c-1.461-0.295-2.562-1.585-2.562-3.132c0-0.013,0-0.026,0-0.04c0.43,0.239,0.923,0.383,1.447,0.4
	c-0.857-0.574-1.421-1.551-1.421-2.659c0-0.585,0.157-1.133,0.432-1.605c1.575,1.932,3.929,3.204,6.583,3.337
	c-0.055-0.235-0.083-0.478-0.083-0.729c0-1.764,1.43-3.194,3.194-3.194c0.918,0,1.749,0.388,2.331,1.009
	c0.728-0.143,1.411-0.409,2.028-0.775c-0.239,0.746-0.745,1.372-1.404,1.767c0.646-0.077,1.262-0.249,1.835-0.503
	C25.81,14.056,25.268,14.619,24.644,15.069z"/>
</svg>
