<?xml version="1.0" encoding="utf-8"?>
<!-- Generator: Adobe Illustrator 16.0.4, SVG Export Plug-In . SVG Version: 6.00 Build 0)  -->
<!DOCTYPE svg PUBLIC "-//W3C//DTD SVG 1.1//EN" "http://www.w3.org/Graphics/SVG/1.1/DTD/svg11.dtd">
<svg version="1.1" id="Layer_1" xmlns="http://www.w3.org/2000/svg" xmlns:xlink="http://www.w3.org/1999/xlink" x="0px" y="0px"
	 width="300px" height="300px" viewBox="0 0 300 300" enable-background="new 0 0 300 300" xml:space="preserve">
<ellipse stroke="#000000" stroke-miterlimit="10" cx="150" cy="151.708" rx="144.033" ry="137.828"/>
<g>
	<g>
		<path fill="#FFFFFF" d="M140.958,155.979c0,0,6.933-9.696,10.101-14.292l26.026-35.493l45.41,1.818l-45.394,47.395l46.735,74.195
			l-46.401-1.857l-27.284-51.049l-10.982,10.693L140.958,155.979z"/>
	</g>
</g>
<g enable-background="new    ">
	<path fill="#FFFFFF" d="M91.877,225.768c0-14.479,10.107-24.859,24.586-24.859s24.04,10.381,24.313,24.859
		c0,14.205-9.562,24.859-24.313,24.859S91.877,239.973,91.877,225.768z M100.892,187.25L94.608,63.5h43.436l-6.01,123.75H100.892z"
		/>
</g>
</svg>
